<svg xmlns="http://www.w3.org/2000/svg" viewBox="0 0 512 512" role="img" aria-labelledby="title desc">
  <title id="title">Hermes App Icon</title>
  <desc id="desc">Dark green messenger icon with a stylized H for Hermes.</desc>
  <defs>
    <linearGradient id="bg" x1="0" x2="1" y1="0" y2="1">
      <stop offset="0%" stop-color="#154624"/>
      <stop offset="42%" stop-color="#0b1f13"/>
      <stop offset="100%" stop-color="#060807"/>
    </linearGradient>
    <linearGradient id="accent" x1="0" x2="1" y1="0" y2="1">
      <stop offset="0%" stop-color="#1ed760"/>
      <stop offset="100%" stop-color="#b9ffd1"/>
    </linearGradient>
    <radialGradient id="glow" cx="50%" cy="0%" r="90%">
      <stop offset="0%" stop-color="#2fff80" stop-opacity="0.35"/>
      <stop offset="100%" stop-color="#2fff80" stop-opacity="0"/>
    </radialGradient>
  </defs>

  <rect x="16" y="16" width="480" height="480" rx="112" fill="url(#bg)"/>
  <rect x="16" y="16" width="480" height="220" rx="112" fill="url(#glow)"/>

  <rect x="122" y="112" width="268" height="288" rx="64" fill="#121312" opacity="0.92"/>
  <path d="M184 176h42v70h60v-70h42v160h-42v-54h-60v54h-42z" fill="#f6f6f6"/>
  <path d="M332 158c22 0 39 16 42 37 2 18-8 33-24 40-6 2-11 4-17 4h-8l14-20c8 0 14-4 18-10 4-6 4-13 1-20-4-9-14-15-26-15-11 0-21 6-25 15l-16-11c9-13 25-20 41-20z" fill="url(#accent)"/>
  <path d="M156 346c34-19 71-30 110-30 36 0 71 9 103 27" fill="none" stroke="url(#accent)" stroke-width="18" stroke-linecap="round"/>
</svg>
